<svg viewBox="0 0 115 88" fill="white" xmlns="http://www.w3.org/2000/svg">
<path d="M104.406 68.3879L108.997 64.0328L112.999 59.6776C114.275 57.9515 114.773 55.7715 114.374 53.6625L114.35 53.5363C114.235 52.9243 114.048 52.3279 113.794 51.7592L111.704 47.0829L110.615 45.0191C109.852 43.5734 109.231 42.057 108.762 40.4913L108.879 49.7903L108.508 52.8758C108.17 55.6778 107.569 58.4419 106.714 61.1315L104.406 68.3879Z" />
<path fill-rule="evenodd" clip-rule="evenodd" d="M108.762 40.4913L108.997 35.3122L109.939 29.3091L110.645 23.4237V14.4551C110.645 12.0457 110.368 9.64425 109.821 7.29785L109.602 6.63987C109.129 5.22089 108.286 3.95366 107.16 2.96871C106.428 2.32843 105.591 1.81984 104.686 1.46553L104.371 1.34223C103.69 1.07593 102.983 0.882452 102.262 0.765033L101.051 0.567881C99.2148 0.268982 97.3482 0.205199 95.4959 0.378072L89.4575 0.941657L84.043 1.76561L80.3941 2.82497L77.6868 3.64892L75.0972 4.59058L81.3357 12.8301L89.4575 25.0716L96.9908 38.7348L100.088 46.4723C101.471 49.9265 102.419 53.5389 102.913 57.2268L104.406 68.3879L106.714 61.1315C107.569 58.4419 108.17 55.6778 108.507 52.8758L108.879 49.7903L108.762 40.4913ZM104.338 32.7226C103.944 32.7226 103.58 32.511 103.385 32.1684L101.628 29.0759C101.056 28.0691 100.735 26.9394 100.692 25.7822L100.311 15.4961C100.295 15.0573 100.19 14.6263 100.003 14.2291C99.5866 13.3437 98.7942 12.6924 97.845 12.4551L97.4758 12.3628C97.1537 12.2823 96.8229 12.2416 96.4909 12.2416H91.2231H90.8758C87.7269 12.2416 84.6501 11.2986 82.042 9.53429L81.5971 9.27478C80.6514 8.72312 80.7776 7.31889 81.8066 6.94473L86.7503 5.88536L91.9294 4.9437L99.0787 4.51042C99.491 4.48543 99.9046 4.49255 100.316 4.53171L101.042 4.60091C101.784 4.67154 102.499 4.9123 103.133 5.30445C104.107 5.90755 104.836 6.83643 105.19 7.92612L105.693 9.47384C106.01 10.4491 106.163 11.47 106.147 12.4953L105.937 25.4248L105.429 31.7154C105.383 32.2843 104.908 32.7226 104.338 32.7226Z" />
<path d="M100.692 25.7822C100.735 26.9394 101.056 28.0691 101.628 29.0759L103.385 32.1684C103.58 32.511 103.944 32.7226 104.338 32.7226C104.908 32.7226 105.383 32.2843 105.429 31.7154L105.937 25.4248L106.147 12.4953C106.163 11.47 106.01 10.4491 105.693 9.47384L105.19 7.92612C104.836 6.83643 104.107 5.90755 103.133 5.30445C102.499 4.9123 101.784 4.67154 101.042 4.60091L100.316 4.53171C99.9046 4.49255 99.491 4.48543 99.0787 4.51042L91.9294 4.9437L86.7503 5.88536L81.8066 6.94473C80.7776 7.31889 80.6514 8.72312 81.5971 9.27478L82.042 9.53429C84.6501 11.2986 87.7269 12.2416 90.8758 12.2416H91.2231H96.4909C96.8229 12.2416 97.1537 12.2823 97.4758 12.3628L97.845 12.4551C98.7942 12.6924 99.5866 13.3437 100.003 14.2291C100.19 14.6263 100.295 15.0573 100.311 15.4961L100.692 25.7822Z" />
<path d="M78.7562 42.5014C78.7562 41.3312 77.7425 40.2559 76.5723 40.2559C75.4022 40.2559 74.391 41.3312 74.391 42.5014C74.391 43.6715 75.4022 44.7288 76.5723 44.7288C77.7425 44.7288 78.7562 43.6715 78.7562 42.5014Z" />
<path d="M36.1361 42.5014C36.1361 41.3312 35.1224 40.2559 33.9523 40.2559C32.7821 40.2559 31.7709 41.3312 31.7709 42.5014C31.7709 43.6715 32.7821 44.7288 33.9523 44.7288C35.1224 44.7288 36.1361 43.6715 36.1361 42.5014Z" />
<path d="M46.6307 71.994C47.2196 72.6222 48.0423 72.9786 48.9034 72.9786H51.2768C51.6843 72.9786 52.0779 72.8307 52.3846 72.5624C52.6854 72.2992 53.07 72.1517 53.4697 72.1463L60.8342 72.0468C61.3067 72.0404 61.7692 72.1828 62.1563 72.4538C62.5349 72.7188 62.9859 72.8609 63.448 72.8609H65.8267C66.6345 72.8609 67.4061 72.5257 67.9572 71.9351L68.2415 71.6306C68.5625 71.2866 68.741 70.8337 68.741 70.3632C68.741 69.3374 67.9094 68.5058 66.8836 68.5058H64.2457C63.4138 68.5058 62.5983 68.2749 61.8898 67.8389L61.7652 67.7623C61.5508 67.6304 61.3467 67.4825 61.1545 67.3199L60.0719 66.4038C59.9661 66.3143 59.8672 66.217 59.7759 66.1127C59.3331 65.6066 59.089 64.957 59.089 64.2846V61.6891C59.089 60.43 59.7089 59.2516 60.7465 58.5382C60.8969 58.4349 61.0397 58.3208 61.1738 58.197L62.5026 56.9705L62.6964 56.7551C63.2536 56.136 63.5619 55.3325 63.5619 54.4996V53.899C63.5619 53.1687 63.2037 52.485 62.6033 52.0693C62.2311 51.8117 61.7892 51.6736 61.3366 51.6736H53.7099C53.1516 51.6736 52.6078 51.8517 52.1576 52.1818C51.4833 52.6763 51.085 53.4624 51.085 54.2986V54.5173C51.085 55.4026 51.4689 56.2445 52.1373 56.825L53.3214 57.8533C54.742 59.0869 55.5578 60.876 55.5578 62.7575V63.5293C55.5578 64.7617 55.0958 65.9494 54.2631 66.8579L53.1877 67.7796C52.8118 68.1018 52.3623 68.3265 51.879 68.4339C51.6642 68.4817 51.4448 68.5058 51.2247 68.5058H47.6438C46.619 68.5058 45.7881 69.3366 45.7881 70.3615C45.7881 70.833 45.9676 71.2867 46.29 71.6307L46.6307 71.994Z" />
<path fill-rule="evenodd" clip-rule="evenodd" d="M12.9478 71.2129L7.53326 65.7984L10.2769 53.3607C10.8011 50.9844 11.5172 48.6545 12.4181 46.394L15.9222 37.6018C16.9971 34.9046 18.3306 32.3179 19.9039 29.8776L26.67 19.3833C28.2686 16.9038 30.1071 14.5876 32.1591 12.4679L39.7851 4.59058L43.1986 3.64893L44.0014 3.37562C47.1431 2.30611 50.4013 1.61569 53.7067 1.31905L54.3208 1.26394C56.7088 1.04964 59.1124 1.07719 61.4948 1.34618C63.9647 1.62503 66.3986 2.16185 68.7566 2.94785L70.8598 3.64893L75.0972 4.59058L81.3357 12.8301L89.4575 25.0716L96.9908 38.7348L100.088 46.4723C101.471 49.9265 102.419 53.5389 102.913 57.2268L104.406 68.3879L100.169 72.1546L95.3429 75.5681L91.4585 78.1576L86.3971 80.7472L82.2774 82.7482L77.8045 84.5138L75.0972 85.3378L71.566 86.2794L70.9189 86.3956C68.2951 86.8665 65.6347 87.1034 62.969 87.1034H51.1787C48.766 87.1034 46.3571 86.9093 43.9755 86.5231L43.1986 86.3971L39.5496 85.4555L36.9601 84.5138L34.7266 83.7855C32.6088 83.0949 30.5452 82.2481 28.5529 81.2519L26.131 80.0409L20.0102 76.5097L16.479 73.9202L12.9478 71.2129ZM78.4657 50.7318L78.857 50.7253C82.198 50.6691 84.8484 47.8925 84.7492 44.5524C84.653 41.3119 81.9982 38.7348 78.7562 38.7348H78.3649C75.5347 38.7348 73.0894 40.7129 72.4983 43.4807C71.6922 47.2545 74.6073 50.7967 78.4657 50.7318ZM68.5056 36C68.5056 37.0394 69.464 37.8141 70.4803 37.5963L71.3612 37.4075C71.6521 37.3452 71.9285 37.2285 72.1761 37.0634L75.3458 34.9503C76.0412 34.4867 76.684 33.9487 77.2628 33.3457L78.4626 32.096C78.9582 31.5797 79.3216 30.9514 79.522 30.2644C79.8541 29.1258 79.7168 27.9018 79.1409 26.865L79.0403 26.6839C78.9231 26.473 78.7819 26.2762 78.6195 26.0977C78.0255 25.4442 77.1833 25.0716 76.3002 25.0716H75.5933C74.7397 25.0716 73.9123 25.367 73.2517 25.9075C73.07 26.0562 72.9028 26.2218 72.7525 26.4022L72.2335 27.025C71.556 27.838 70.9872 28.7358 70.5415 29.6958L69.6827 31.5455L69.526 31.9374C69.0051 33.2397 68.6619 34.6061 68.5056 36ZM43.4021 37.2626C43.5788 37.3738 43.7746 37.4511 43.9795 37.4906C45.2246 37.73 46.2755 36.5556 45.8997 35.3446L45.6704 34.6059L44.1402 30.7216L42.6991 27.9354C42.4841 27.5197 42.2062 27.1396 41.8752 26.8087C41.2048 26.1383 40.3417 25.6941 39.4065 25.5382L39.3765 25.5332C38.9448 25.4613 38.5051 25.4507 38.0704 25.5019L37.4917 25.5699C36.9888 25.6291 36.5096 25.8166 36.1 26.1145L36.0327 26.1634C35.6384 26.4502 35.3307 26.8399 35.1432 27.2899C34.9462 27.7627 34.8901 28.2825 34.9817 28.7865L35.0804 29.3292C35.2319 30.1623 35.6141 30.936 36.1837 31.5625L36.4893 31.8987L38.2549 33.5466L40.4913 35.4299L43.4021 37.2626ZM35.7449 50.5031L36.1361 50.4966C39.4772 50.4404 42.1276 47.6638 42.0284 44.3237C41.9321 41.0832 39.2774 38.5061 36.0354 38.5061H35.6441C32.8138 38.5061 30.3686 40.4842 29.7774 43.252C28.9714 47.0258 31.8865 50.568 35.7449 50.5031ZM44.8465 50.732L43.9048 51.6736L40.3736 54.3809L39.781 54.9196C39.3241 55.335 38.7499 55.5991 38.1372 55.6757H32.8278C32.5247 55.6757 32.2242 55.7302 31.9404 55.8366C31.6026 55.9633 31.2959 56.1608 31.0408 56.4159L30.7459 56.7108C30.4952 56.9615 30.2753 57.2412 30.091 57.5441L28.7206 59.7954C27.789 61.9281 27.3081 64.2303 27.3081 66.5575V69.5226C27.3081 70.0185 27.388 70.5112 27.5449 70.9817C27.6223 71.214 27.7181 71.4398 27.8314 71.6569L28.1442 72.2565C28.7603 73.4373 29.5528 74.5171 30.4945 75.4589L31.1924 76.1567L31.5724 76.5051C33.1954 77.9928 35.0068 79.2608 36.9601 80.2765L40.3736 81.689L43.7871 82.7484L46.7298 83.5723C48.4527 83.8855 50.2002 84.043 51.9513 84.043H65.0921L67.0931 83.9253L67.7038 83.8143C69.0204 83.5749 70.313 83.2181 71.566 82.7484L74.1556 81.8067L76.0389 80.9827L77.8045 80.0411L79.3347 79.3348C80.6594 78.6335 81.8578 77.7161 82.8806 76.6203L82.9836 76.5099L83.8504 75.6431C84.5259 74.9676 85.1216 74.2169 85.6259 73.4056C86.8976 71.3598 87.5505 68.99 87.5059 66.5816L87.4661 64.4344C87.4597 64.0888 87.4254 63.7443 87.3636 63.4042C87.269 62.8837 87.1104 62.3768 86.8914 61.8951L86.6325 61.3256L85.8086 59.56L85.405 58.8032C85.0482 58.1344 84.5945 57.522 84.0585 56.986L83.7112 56.6386C83.3077 56.2352 82.8369 55.9054 82.3198 55.6641C81.6716 55.3616 80.965 55.2049 80.2497 55.2049H75.4092C75.28 55.2049 75.1511 55.1921 75.0245 55.1668C74.7619 55.1143 74.5128 55.0085 74.2926 54.8561L73.0962 54.0278L72.4929 53.6256C72.1896 53.4234 71.907 53.1917 71.6493 52.934C71.3593 52.644 71.1024 52.3226 70.8833 51.9758L69.8004 50.2612L68.5056 48.3778L67.8359 47.6411C67.4981 47.2696 67.134 46.9228 66.7464 46.6036L66.4267 46.3404C65.6995 45.7415 64.8734 45.2741 63.9855 44.9592C63.1164 44.651 62.201 44.4935 61.2789 44.4935H51.3737C50.6569 44.4935 49.9651 44.7565 49.4294 45.2327C49.278 45.3673 49.113 45.4858 48.9371 45.5863L48.7463 45.6953C47.9655 46.1415 47.3184 46.7886 46.8723 47.5694L46.6121 48.0247L46.3513 48.5836C45.9787 49.3819 45.4694 50.109 44.8465 50.732ZM46.6307 71.994C47.2196 72.6222 48.0423 72.9786 48.9034 72.9786H51.2768C51.6843 72.9786 52.0779 72.8307 52.3846 72.5624C52.6854 72.2992 53.07 72.1517 53.4697 72.1463L60.8342 72.0468C61.3067 72.0404 61.7692 72.1828 62.1563 72.4538C62.5349 72.7188 62.9859 72.8609 63.448 72.8609H65.8267C66.6345 72.8609 67.4061 72.5257 67.9572 71.9351L68.2415 71.6306C68.5625 71.2866 68.741 70.8337 68.741 70.3632C68.741 69.3374 67.9094 68.5058 66.8836 68.5058H64.2457C63.4138 68.5058 62.5983 68.2749 61.8898 67.8389L61.7652 67.7623C61.5508 67.6304 61.3467 67.4825 61.1545 67.3199L60.0719 66.4038C59.9661 66.3143 59.8672 66.217 59.7759 66.1127C59.3331 65.6066 59.089 64.957 59.089 64.2846V61.6891C59.089 60.43 59.7089 59.2516 60.7465 58.5382C60.8969 58.4349 61.0397 58.3208 61.1738 58.197L62.5026 56.9705L62.6964 56.7551C63.2536 56.136 63.5619 55.3325 63.5619 54.4996V53.899C63.5619 53.1687 63.2037 52.485 62.6033 52.0693C62.2311 51.8117 61.7892 51.6736 61.3366 51.6736H53.7099C53.1516 51.6736 52.6078 51.8517 52.1576 52.1818C51.4833 52.6763 51.085 53.4624 51.085 54.2986V54.5173C51.085 55.4026 51.4689 56.2445 52.1373 56.825L53.3214 57.8533C54.742 59.0869 55.5578 60.876 55.5578 62.7575V63.5293C55.5578 64.7617 55.0958 65.9494 54.2631 66.8579L53.1877 67.7796C52.8118 68.1018 52.3623 68.3265 51.879 68.4339C51.6642 68.4817 51.4448 68.5058 51.2247 68.5058H47.6438C46.619 68.5058 45.7881 69.3366 45.7881 70.3615C45.7881 70.833 45.9676 71.2867 46.29 71.6307L46.6307 71.994Z" />
<path fill-rule="evenodd" clip-rule="evenodd" d="M39.7851 4.59058L35.9007 3.64893L29.4268 1.88332L24.9539 1.05937L20.2324 0.384856C18.4447 0.129478 16.6306 0.119052 14.8401 0.353868L12.7873 0.623097C11.1884 0.83279 9.65697 1.39901 8.30623 2.27992L8.15035 2.38158C7.81787 2.59842 7.50156 2.8391 7.20391 3.10173L6.99102 3.28957C6.11079 4.06625 5.43748 5.04958 5.03166 6.15109C4.89479 6.52259 4.78932 6.90491 4.71636 7.29403L4.49068 8.49768C4.24392 9.81369 4.11975 11.1497 4.11975 12.4887V26.7196L4.52647 30.9495C4.64753 32.2084 4.85832 33.4571 5.15726 34.6861C5.56323 36.3551 6.1301 37.9808 6.84991 39.5404L7.18014 40.2559L5.64995 51.6736V52.7579C5.64995 56.4934 6.11508 60.2144 7.03461 63.835L7.53326 65.7984L10.2769 53.3607C10.8011 50.9844 11.5172 48.6545 12.4181 46.394L15.9222 37.6018C16.9971 34.9046 18.3306 32.3179 19.9039 29.8776L26.67 19.3833C28.2686 16.9038 30.1071 14.5876 32.1591 12.468L39.7851 4.59058ZM14.478 26.368C14.478 27.06 14.2884 27.7387 13.9297 28.3304L11.0066 33.1535C10.5134 33.9673 9.29567 33.8401 8.98131 32.9419C8.95766 32.8744 8.9405 32.8047 8.93009 32.7338L8.35721 28.8383L8.00409 15.6551V11.5353L8.21068 10.0203C8.30794 9.30706 8.49872 8.60968 8.77807 7.94621L8.98347 7.4584C9.19235 6.96231 9.48049 6.50348 9.83662 6.09986C10.6285 5.20246 11.7177 4.62119 12.904 4.46302L14.5957 4.23746H16.2236C18.353 4.23746 20.4797 4.3886 22.5876 4.68974L22.7175 4.70829L27.4258 5.53224L31.0747 6.23849L32.9351 6.7811C33.5139 6.94992 33.9248 7.46351 33.9624 8.06527C33.9961 8.60507 33.7225 9.11775 33.2554 9.39027L31.1924 10.5937C29.3545 11.8955 27.1578 12.5947 24.9056 12.5947H17.5789C17.2404 12.5947 16.9044 12.6518 16.5849 12.7636C15.4494 13.161 14.6598 14.1966 14.577 15.3967L14.478 16.8321V26.368Z" />
<path d="M8.98131 32.9419C9.29567 33.8401 10.5134 33.9673 11.0066 33.1535L13.9297 28.3304C14.2884 27.7387 14.478 27.06 14.478 26.368V16.8321L14.577 15.3967C14.6598 14.1966 15.4494 13.161 16.5849 12.7636C16.9044 12.6518 17.2404 12.5947 17.5789 12.5947H24.9056C27.1578 12.5947 29.3545 11.8955 31.1924 10.5937L33.2554 9.39027C33.7225 9.11775 33.9961 8.60507 33.9624 8.06527C33.9248 7.46351 33.5139 6.94992 32.9351 6.7811L31.0747 6.23849L27.4258 5.53224L22.7175 4.70829L22.5876 4.68974C20.4797 4.3886 18.353 4.23746 16.2236 4.23746H14.5957L12.904 4.46302C11.7177 4.62119 10.6285 5.20246 9.83662 6.09986C9.48049 6.50348 9.19235 6.96231 8.98347 7.4584L8.77807 7.94621C8.49872 8.60968 8.30794 9.30706 8.21068 10.0203L8.00409 11.5353V15.6551L8.35721 28.8383L8.93009 32.7338C8.9405 32.8047 8.95766 32.8744 8.98131 32.9419Z" />
<path d="M1.43675 59.1154C1.96758 60.0355 2.61687 60.882 3.368 61.6331L7.53327 65.7984L7.03462 63.835C6.11508 60.2144 5.64995 56.4934 5.64995 52.7579V51.6737L7.18014 40.2559L3.67731 46.3148C3.11 47.2961 2.62224 48.3213 2.21873 49.3806L0.527648 53.8196C0.183162 54.7239 0.105994 55.7082 0.305344 56.6551C0.414977 57.1759 0.60631 57.676 0.872249 58.1369L1.43675 59.1154Z" />
</svg>
